<?xml version="1.0" standalone="no"?>
<!DOCTYPE svg PUBLIC "-//W3C//DTD SVG 20010904//EN"
 "http://www.w3.org/TR/2001/REC-SVG-20010904/DTD/svg10.dtd">
<svg version="1.0" xmlns="http://www.w3.org/2000/svg"
 width="2304.000000pt" height="1846.000000pt" viewBox="0 0 2304.000000 1846.000000"
 preserveAspectRatio="xMidYMid meet">

<g transform="translate(0.000000,1846.000000) scale(0.100000,-0.100000)"
fill="#000000" stroke="none">
<path d="M15750 15121 c-179 -27 -512 -76 -740 -110 -228 -33 -530 -78 -670
-100 -264 -41 -590 -89 -1295 -192 -225 -33 -511 -75 -635 -94 -124 -19 -385
-57 -580 -85 -729 -103 -948 -144 -1155 -217 -277 -97 -571 -272 -820 -489
-49 -43 -340 -326 -645 -629 -305 -303 -899 -890 -1320 -1305 -421 -414 -979
-966 -1240 -1225 -261 -259 -877 -868 -1368 -1354 -536 -531 -916 -915 -951
-961 -99 -131 -195 -339 -232 -498 -30 -130 -37 -378 -14 -513 39 -234 99
-365 333 -724 94 -143 228 -350 300 -460 196 -301 502 -770 813 -1245 153
-234 311 -476 351 -537 151 -234 384 -591 643 -988 356 -545 558 -855 745
-1146 85 -132 244 -376 354 -542 184 -280 206 -310 310 -412 168 -166 313
-255 527 -326 231 -76 -226 -70 5199 -67 4569 3 4869 4 4935 21 119 29 197 57
290 104 325 162 579 478 659 818 9 39 57 302 106 585 50 283 131 742 180 1020
49 278 112 633 139 790 28 157 75 425 105 595 30 171 78 441 106 600 86 491
139 788 190 1075 81 454 157 884 190 1070 17 96 57 330 90 520 33 190 76 431
95 535 147 809 150 836 140 975 -8 123 -38 296 -66 385 -37 121 -141 323 -226
440 -43 61 -169 225 -278 365 -109 140 -265 341 -345 445 -80 105 -198 256
-261 336 -63 81 -188 243 -279 360 -91 117 -236 303 -323 414 -232 296 -227
289 -442 570 -110 143 -267 346 -349 450 -83 105 -209 267 -281 360 -72 94
-179 231 -236 305 -58 74 -198 257 -312 406 -273 359 -371 450 -607 569 -212
106 -373 145 -625 150 -175 4 -190 3 -505 -44z m600 -171 c235 -29 485 -135
647 -275 l62 -53 -377 -368 c-207 -203 -456 -446 -553 -541 l-175 -174 -120
122 c-65 67 -252 257 -414 423 -162 166 -375 381 -472 479 -165 165 -193 197
-169 197 10 0 314 44 961 139 429 63 476 67 610 51z m-1698 -397 c85 -87 376
-384 647 -661 l493 -502 -31 -39 c-17 -21 -37 -43 -44 -50 -15 -11 -193 165
-947 934 -129 132 -281 287 -337 344 -57 58 -102 106 -100 107 5 5 102 22 133
23 28 1 49 -17 186 -156z m-970 -10 c21 -20 38 -42 38 -49 0 -15 -1454 -1454
-1470 -1454 -12 0 -1170 1148 -1170 1160 0 4 35 12 78 19 147 23 609 92 1087
161 438 64 1123 165 1270 188 112 18 125 16 167 -25z m999 -535 c745 -757 844
-858 847 -866 1 -5 -13 -23 -32 -41 l-35 -34 -34 26 c-37 28 -1324 1336 -1357
1379 l-21 28 27 35 c14 19 32 35 39 35 7 0 262 -253 566 -562z m2681 237 c89
-115 220 -286 292 -380 72 -93 216 -280 322 -415 105 -135 252 -325 327 -423
l136 -178 -177 -172 c-97 -95 -302 -295 -454 -444 -153 -150 -281 -273 -286
-273 -10 0 -1405 1415 -1410 1429 -2 5 237 244 530 531 293 287 535 526 537
532 1 5 7 8 12 6 5 -2 82 -97 171 -213z m-2730 -664 l667 -676 -72 -73 c-40
-41 -274 -270 -522 -510 -247 -240 -545 -530 -660 -644 -116 -115 -215 -208
-221 -208 -5 0 -327 318 -714 706 l-705 706 700 693 c385 381 715 709 734 729
l34 36 46 -42 c25 -23 346 -345 713 -717z m-3177 -70 c344 -343 625 -627 625
-630 0 -3 -15 -24 -34 -46 l-34 -40 -178 172 c-238 227 -1128 1122 -1123 1127
7 7 104 44 111 42 4 0 289 -282 633 -625z m-281 -190 l678 -678 -424 -419
c-232 -230 -560 -554 -728 -719 -168 -165 -415 -409 -550 -542 l-245 -243
-725 719 -725 720 105 103 c58 56 371 366 695 688 616 611 731 720 880 830 88
65 336 219 355 220 3 0 310 -305 684 -679z m5471 -791 c379 -385 693 -707 698
-716 7 -13 -2 -27 -36 -62 l-46 -46 -427 435 c-620 629 -883 898 -934 952
l-44 47 44 45 c24 25 47 45 50 45 3 0 315 -315 695 -700z m-334 -172 c338
-343 654 -665 703 -716 l89 -93 -34 -35 c-18 -19 -39 -34 -46 -34 -18 0 -1392
1392 -1402 1421 -3 11 57 79 69 79 4 0 283 -280 621 -622z m-371 -105 c267
-274 581 -595 698 -714 116 -120 212 -222 212 -227 0 -14 -1212 -1211 -1251
-1235 -26 -17 -43 -19 -127 -14 -126 6 -239 42 -319 100 -59 44 -1064 1035
-1127 1112 l-35 42 327 325 c604 600 1123 1108 1130 1108 4 0 226 -224 492
-497z m-2982 -236 c485 -485 701 -707 697 -717 -4 -8 -22 -28 -41 -44 l-35
-29 -496 494 c-274 272 -593 591 -710 710 l-212 215 37 37 c20 20 41 37 47 37
5 0 326 -316 713 -703z m5793 437 c69 -87 171 -217 225 -289 99 -129 184 -238
596 -766 l215 -277 -331 -329 c-182 -180 -347 -343 -367 -361 l-35 -32 -685
695 c-376 383 -684 703 -684 711 0 8 198 208 440 444 l440 430 30 -33 c17 -19
87 -105 156 -193z m-6037 -670 c388 -386 706 -706 706 -712 0 -5 -174 -180
-387 -388 -360 -352 -789 -773 -1330 -1308 l-222 -219 -388 381 c-213 209
-534 527 -713 707 l-325 326 620 611 c341 337 778 768 970 960 193 191 353
347 357 345 3 -1 324 -318 712 -703z m-3685 -498 c392 -392 712 -718 710 -724
-5 -13 -1420 -1412 -1428 -1412 -7 0 -1413 1417 -1423 1435 -8 14 1392 1415
1414 1415 7 0 334 -321 727 -714z m8696 152 c99 -101 405 -412 679 -691 l499
-508 -43 -44 c-24 -25 -48 -45 -53 -45 -8 0 -488 483 -1149 1157 -126 127
-228 237 -228 244 0 7 19 29 42 50 30 27 47 35 58 29 8 -5 96 -91 195 -192z
m-295 -215 c79 -81 338 -344 575 -583 236 -239 477 -483 535 -543 l105 -107
-43 -42 -42 -43 -108 110 c-516 524 -1206 1228 -1237 1264 l-39 43 37 34 c29
27 41 32 55 25 9 -5 82 -76 162 -158z m-2510 -1148 c245 -242 773 -766 1173
-1164 l728 -724 -38 -39 c-20 -21 -42 -38 -47 -38 -6 0 -175 163 -376 363
-201 199 -853 846 -1448 1437 -596 591 -1102 1096 -1124 1123 l-41 48 39 40
38 39 326 -322 c179 -178 525 -521 770 -763z m3117 44 c194 -195 353 -360 353
-365 0 -5 -100 -108 -223 -229 -122 -121 -425 -421 -672 -666 -248 -245 -466
-460 -486 -477 l-37 -32 -536 537 c-295 296 -560 570 -590 610 -73 96 -97 164
-103 284 -4 70 -2 102 8 121 8 14 294 303 637 642 l623 618 337 -344 c185
-188 495 -503 689 -699z m2032 637 c70 -89 168 -214 217 -279 49 -65 110 -146
136 -180 60 -78 150 -252 177 -339 22 -72 55 -238 66 -329 l6 -56 -196 -194
c-108 -107 -202 -195 -209 -197 -6 -1 -79 66 -161 150 -82 84 -314 322 -517
530 -202 207 -368 380 -368 385 0 4 156 162 347 350 278 274 349 340 361 331
7 -6 71 -84 141 -172z m-5657 -656 c212 -213 370 -380 395 -417 53 -80 66
-140 53 -235 -14 -94 -39 -135 -147 -238 -48 -46 -342 -334 -653 -640 -311
-305 -617 -606 -681 -668 l-115 -112 -202 0 -202 0 -578 573 c-319 314 -594
587 -611 604 -18 18 -31 37 -29 41 3 7 1050 1041 1686 1665 l253 248 239 -233
c131 -128 398 -393 592 -588z m-6977 -375 c391 -394 711 -719 713 -723 2 -7
-227 -237 -1104 -1106 -161 -158 -297 -287 -303 -285 -9 4 -1101 1090 -1344
1338 l-92 93 705 699 c388 384 707 698 710 699 3 0 325 -322 715 -715z m3210
-45 l680 -681 -100 -97 c-55 -53 -221 -215 -368 -359 l-269 -263 -701 0 -702
1 -357 353 c-197 195 -358 358 -358 362 0 5 321 327 713 715 l712 706 35 -28
c19 -15 341 -334 715 -709z m8939 -132 l527 -532 -51 -51 -50 -50 -208 210
c-291 295 -662 674 -761 778 l-84 88 43 44 c24 25 47 45 51 45 4 0 244 -239
533 -532z m-4074 272 c0 -5 -2 -10 -4 -10 -3 0 -8 5 -11 10 -3 6 -1 10 4 10 6
0 11 -4 11 -10z m3553 -257 c144 -148 381 -389 527 -536 l265 -268 -45 -40
-44 -39 -74 72 c-41 40 -278 282 -528 538 l-454 465 37 37 c20 21 41 38 46 38
4 0 126 -120 270 -267z m-217 -270 c159 -164 394 -405 523 -535 l235 -238 -25
-26 c-13 -15 -329 -332 -702 -706 l-679 -679 -41 48 c-107 123 -305 328 -646
668 -204 203 -371 373 -371 377 0 4 118 123 263 265 144 142 458 452 698 690
239 238 440 433 445 433 6 0 141 -134 300 -297z m-3614 -19 c18 -9 203 -186
412 -393 209 -207 503 -497 653 -645 150 -147 273 -274 273 -280 0 -7 -57 -68
-127 -137 -71 -68 -505 -499 -967 -957 l-838 -834 -137 133 c-75 74 -346 342
-603 596 l-467 463 -3 207 -4 208 291 291 c159 159 524 519 809 798 451 442
527 512 580 537 70 33 85 35 128 13z m5395 -69 c-4 -8 -29 -151 -57 -317 -28
-167 -66 -382 -85 -478 -18 -96 -43 -236 -55 -310 -12 -74 -46 -270 -75 -435
-30 -165 -73 -406 -95 -535 -22 -129 -65 -370 -95 -535 -30 -165 -68 -381 -85
-480 -55 -319 -161 -900 -165 -904 -7 -6 -747 724 -817 806 -36 43 -101 121
-145 174 -119 146 -531 648 -577 702 l-40 48 205 206 c249 251 1064 1066 1646
1646 236 235 433 427 437 427 5 0 6 -7 3 -15z m-15072 -730 c639 -627 1025
-1013 1025 -1023 0 -11 -1469 -1462 -1480 -1462 -4 0 -55 75 -115 168 -59 92
-179 275 -265 407 -260 399 -289 446 -331 533 -54 114 -86 239 -100 389 -23
257 44 498 202 723 50 72 636 673 650 668 4 -2 190 -183 414 -403z m6545 -233
l610 -604 0 -204 0 -204 -442 -438 c-509 -504 -542 -535 -594 -553 -57 -20
-272 -17 -346 4 -49 15 -63 26 -108 80 -29 34 -60 67 -70 72 -26 14 -390 357
-401 377 -5 9 -9 307 -9 686 l0 670 368 361 c202 198 370 360 374 358 4 -1
282 -274 618 -605z m-3419 237 l359 -361 0 -681 0 -682 -352 -352 c-194 -194
-357 -353 -362 -353 -11 0 -1265 1240 -1352 1336 l-66 74 259 257 c471 470
1137 1123 1146 1123 4 0 170 -162 368 -361z m1139 -959 c-300 -297 -551 -540
-557 -540 -10 0 -13 115 -13 540 l0 540 558 -1 557 0 -545 -539z m7642 33
c347 -348 527 -535 624 -653 75 -91 161 -194 190 -229 29 -36 52 -67 50 -69
-5 -5 -186 130 -271 202 -67 57 -801 780 -1022 1007 l-143 146 36 41 c20 23
39 42 42 42 4 0 226 -219 494 -487z m-6934 -180 l-3 -538 -542 -3 c-299 -1
-543 1 -543 5 -1 10 1072 1072 1083 1073 4 0 6 -242 5 -537z m6827 -192 l459
-460 -749 -753 c-412 -414 -844 -849 -961 -967 l-212 -214 -549 542 c-301 299
-548 547 -548 552 0 5 434 438 965 963 l965 954 85 -79 c47 -43 292 -285 545
-538z m-4145 254 l0 -145 -139 0 c-77 0 -142 3 -144 8 -2 4 -2 69 1 145 l4
137 139 0 139 0 0 -145z m-5774 -823 c368 -365 681 -679 696 -696 l27 -33
-909 -901 -908 -902 -133 203 c-73 111 -267 409 -432 662 -164 253 -354 543
-421 645 -68 102 -126 190 -129 196 -6 11 99 117 843 849 178 176 402 398 496
494 149 151 174 172 186 160 8 -8 316 -313 684 -677z m6195 106 c203 -200 479
-470 612 -600 l242 -237 -694 -690 -695 -690 -600 597 c-331 328 -616 615
-635 637 -44 52 -61 93 -68 169 -5 51 -2 70 16 106 16 32 169 191 539 557
l517 513 198 0 199 0 369 -362z m-2833 -306 c168 -166 215 -218 232 -258 12
-29 47 -75 83 -112 l62 -63 0 -92 c0 -67 -5 -100 -17 -123 -9 -17 -248 -264
-529 -548 l-512 -516 -214 0 -214 0 -605 597 -605 597 363 363 363 363 690 0
691 0 212 -208z m7347 43 c88 -69 230 -179 315 -244 85 -66 191 -150 235 -186
44 -37 154 -125 245 -196 130 -101 245 -208 549 -506 l383 -378 -75 -430 c-42
-236 -104 -587 -137 -780 -34 -192 -79 -449 -101 -570 -22 -121 -65 -359 -95
-530 -100 -572 -130 -723 -156 -805 -24 -76 -78 -187 -121 -249 l-30 -43 -776
773 c-427 426 -1126 1122 -1553 1548 l-777 774 46 51 c57 63 1876 1894 1883
1895 3 1 77 -55 165 -124z m-6556 -531 c1 -47 3 -91 4 -97 1 -7 -8 -12 -20
-11 -13 0 -54 1 -92 2 l-70 2 -5 43 c-3 23 -7 66 -9 95 l-4 52 97 0 97 0 2
-86z m-2783 -669 c263 -258 536 -527 606 -597 l128 -127 0 -209 0 -210 -970
-968 c-534 -533 -974 -970 -979 -972 -4 -1 -82 114 -174 255 -91 142 -344 530
-561 863 l-394 605 446 445 c1033 1029 1402 1392 1410 1388 6 -1 225 -214 488
-473z m6353 -45 c281 -278 525 -522 542 -543 l31 -38 -904 -912 c-497 -502
-1160 -1171 -1473 -1487 -312 -316 -571 -576 -574 -578 -9 -3 -1121 1098
-1121 1111 0 6 343 351 763 767 419 417 1086 1080 1482 1474 396 393 725 714
732 713 6 -1 241 -229 522 -507z m-3407 315 c35 -33 317 -311 626 -619 l564
-560 -724 -717 -723 -717 -165 162 c-91 89 -366 361 -612 604 l-448 443 0 213
0 213 383 385 c497 501 623 617 702 647 19 7 87 10 182 8 l153 -4 62 -58z
m-1702 -1180 l0 -145 -145 0 -145 0 0 145 0 145 145 0 145 0 0 -145z m7399
-1419 c853 -852 1551 -1553 1551 -1557 0 -21 -208 -146 -311 -187 -168 -67 74
-62 -3170 -62 l-2940 0 12 23 c7 12 242 254 523 537 281 283 779 785 1106
1115 944 952 1674 1684 1677 1682 1 -1 700 -699 1552 -1551z m-6736 447 c337
-333 613 -610 615 -614 2 -4 -365 -374 -815 -823 l-818 -815 -467 -1 c-493 0
-537 3 -678 49 -105 35 -259 117 -354 188 -114 85 -198 184 -357 423 l-130
194 1003 1003 1003 1003 193 0 194 0 611 -607z m1268 -1253 c266 -261 520
-510 564 -552 l80 -77 -185 -186 -185 -185 -1112 0 c-863 0 -1113 3 -1113 12
0 14 1451 1469 1461 1466 4 -2 224 -217 490 -478z"/>
</g>
</svg>
